<svg viewBox="0 0 256 257" xmlns="http://www.w3.org/2000/svg" preserveAspectRatio="xMidYMid"><path d="M255.294 62.422a15.38 15.38 0 0 0-10.295-9.952L140.68 2.21a15.38 15.38 0 0 0-14.64 0L21.72 52.47a15.38 15.38 0 0 0-10.294 9.952L.02 105.252a15.38 15.38 0 0 0 5.23 16.26l113.493 81.426a15.38 15.38 0 0 0 18.02 0L250.06 121.512a15.38 15.38 0 0 0 5.23-16.26l-11.402-42.83ZM22.11 68.32l105.88-47.94 105.882 47.94-42.353 42.353-63.53 63.53-63.53-63.53L22.11 68.32Zm211.768 41.21-11.403 42.83-63.53 21.176-42.352-42.352 63.53-63.53 53.755 41.876Z" fill="#646CFF"/><path d="m191.33 191.33-42.353 42.354a15.38 15.38 0 0 1-21.176 0l-42.353-42.354 42.353-42.353 42.353 42.353.001-.001Z" fill="#646CFF"/></svg>