<svg xmlns="http://www.w3.org/2000/svg" viewBox="0 0 48 48" width="48px" height="48px"><path fill="#61dafb" d="M24,4.6c-0.4,0-0.8,0.3-0.9,0.7L13.2,26.6c-0.1,0.2,0,0.5,0.2,0.6l10.1,6.3c0.2,0.1,0.4,0.1,0.6,0l10.1-6.3c0.2-0.1,0.3-0.4,0.2-0.6L24.9,5.3C24.8,4.9,24.4,4.6,24,4.6z M24,8.2l7.4,15.3l-7.4,4.6l-7.4-4.6L24,8.2z"/><path fill="#61dafb" d="M35.4,13.2c-0.2,0-0.4,0.1-0.6,0.2L25,19.7c-0.2,0.1-0.3,0.4-0.2,0.6l3.5,11.3c0.1,0.2,0.4,0.4,0.6,0.3l11.3-3.5c0.2-0.1,0.4-0.4,0.3-0.6L36.1,13.5C35.9,13.3,35.7,13.2,35.4,13.2z M32.2,28.8l-2.4-7.8l7.8,2.4L32.2,28.8z"/><path fill="#61dafb" d="M12.6,13.2c-0.3,0-0.5,0.1-0.7,0.4L4.4,27.8c-0.1,0.2,0,0.5,0.2,0.6l11.3,3.5c0.2,0.1,0.5,0,0.6-0.2l3.5-11.3c0.1-0.2,0-0.5-0.2-0.6L13.2,13.4C13,13.3,12.8,13.2,12.6,13.2z M15.8,28.8L10.4,23.4l7.8-2.4L15.8,28.8z"/><circle fill="#61dafb" cx="24" cy="24" r="3.4"/></svg>